<?xml version="1.0" encoding="UTF-8" standalone="no"?>
<!-- Created with Inkscape (http://www.inkscape.org/) -->
<svg id="svg3746" xmlns:rdf="http://www.w3.org/1999/02/22-rdf-syntax-ns#" xmlns="http://www.w3.org/2000/svg" height="500" viewBox="0 0 499.99428 499.99428" width="500" version="1.1" xmlns:cc="http://creativecommons.org/ns#" xmlns:dc="http://purl.org/dc/elements/1.1/">
 <metadata id="metadata3752">
  <rdf:RDF>
   <cc:Work rdf:about="">
    <dc:format>image/svg+xml</dc:format>
    <dc:type rdf:resource="http://purl.org/dc/dcmitype/StillImage"/>
    <dc:title/>
   </cc:Work>
  </rdf:RDF>
 </metadata>
 <path id="path" d="m225.9 434.14c-40.409-5.576-78.054-24.276-106.95-53.125-25.942-25.908-42.648-56.95-51.053-94.877-3.8774-17.495-3.8774-54.883 0-72.378 8.4007-37.905 25.089-68.926 51.036-94.874 25.947-25.947 56.969-42.634 94.874-51.036 17.495-3.8774 54.883-3.8774 72.378 0 37.905 8.4007 68.926 25.089 94.874 51.036 25.947 25.947 42.634 56.969 51.036 94.874 3.8774 17.495 3.8774 54.883 0 72.378-16.679 75.256-70.759 129.5-145.28 145.72-13.395 2.9153-47.184 4.1839-60.921 2.2872zm60.263-22.704c63.599-14.549 111.21-62.752 125.94-127.51 4.0509-17.808 4.0509-50.169 0-67.974-7.5356-33.124-21.995-59.599-45.257-82.861-23.263-23.263-49.735-37.721-82.861-45.257-17.808-4.0509-50.169-4.0509-67.974 0-33.124 7.5356-59.599 21.995-82.861 45.257-23.263 23.263-37.721 49.735-45.257 82.861-4.0509 17.808-4.0509 50.169 0 67.974 16.025 70.443 71.611 121.44 142.32 130.57 14.02 1.81 41.142 0.3252 55.954-3.0634zm-48.343-49.222c-3.5498-13.11-6.7822-25.099-7.183-26.642-0.71941-2.7696-0.61892-2.7953 7.8453-2.0087l8.5741 0.79688 2.0198-35.683c1.1109-19.625 1.8998-35.802 1.7532-35.948-0.14671-0.14671-13.556 7.5012-29.799 16.995-16.243 9.494-29.718 17.076-29.944 16.851-0.22571-0.22569 10.63-39.058 24.123-86.294l24.534-85.882 18.258-0.3431 18.258-0.34309-0.73469 2.8169c-0.40409 1.5492-13.199 32.594-28.432 68.989-15.234 36.395-27.518 66.376-27.299 66.626 0.22037 0.2501 17.462-9.9421 38.315-22.649 20.852-12.707 38.051-22.931 38.218-22.719 0.16677 0.2123-7.3896 26.546-16.792 58.519-9.4022 31.974-17.11 58.828-17.131 59.678-0.0197 0.86742 1.4577 1.5521 3.366 1.5597 5.1471 0.0206 12.678 1.4385 12.678 2.3871 0 1.2142-32.065 46.391-33.211 46.791-0.5286 0.18457-3.8655-10.391-7.4154-23.501z"/>
</svg>
