<?xml version="1.0" encoding="UTF-8" standalone="no"?>
<!-- Created with Inkscape (http://www.inkscape.org/) -->
<svg id="svg3598" xmlns:rdf="http://www.w3.org/1999/02/22-rdf-syntax-ns#" xmlns="http://www.w3.org/2000/svg" height="500" viewBox="0 0 500 500" width="500" version="1.1" xmlns:cc="http://creativecommons.org/ns#" xmlns:dc="http://purl.org/dc/elements/1.1/">
 <metadata id="metadata3604">
  <rdf:RDF>
   <cc:Work rdf:about="">
    <dc:format>image/svg+xml</dc:format>
    <dc:type rdf:resource="http://purl.org/dc/dcmitype/StillImage"/>
    <dc:title/>
   </cc:Work>
  </rdf:RDF>
 </metadata>
 <path id="path" d="m161.63 428.93c-41.08-25.5-63.288-50.27-73.073-81.48-2.49-7.95-2.917-11.91-2.889-26.83 0.05161-27.434 3.5084-39.66 22.442-79.375 15.499-32.51 19.816-43.59 22.866-58.685l2.3315-11.541 3.348 7.4604c1.8414 4.1032 4.2078 9.8972 5.2586 12.876 2.3912 6.7774 5.5745 26.101 5.5812 33.879 0.002 3.225 0.45094 6.1393 0.99595 6.4762 1.2468 0.77057 25.966-32.333 35.35-47.34 14.558-23.281 24.874-45.333 31.125-66.537 4.9115-16.658 6.5708-28.613 6.0765-43.778-0.35307-10.832-0.12287-12.815 1.4876-12.812 2.9702 0.0042 20.773 10.564 30.945 18.355 15.322 11.735 33.997 33.639 45.634 53.523 7.2554 12.397 16.079 32.6 21.564 49.375 2.5852 7.9062 5.117 14.848 5.6262 15.425 1.2279 1.3926 8.3162-9.0207 10.657-15.656 4.1273-11.698 3.6967-26.539-1.3716-47.269-0.55727-2.2793 2.3893 0.1195 10.888 8.8635 19.534 20.098 34.168 41.02 46.697 66.761 33.588 69.007 25.391 132.19-23.651 182.32-11.643 11.901-20.127 19.239-31.636 27.366-7.2132 5.0932-26.308 17.19-27.135 17.19-0.29098 0 1.4018-4.7362 3.7618-10.525 9.0647-22.234 12.384-42.469 11.395-69.475-1.61-43.54-17.63-84.05-45.96-116.2-8.12-9.23-24.2-23.8-26.25-23.8-0.44004 0-0.54546 4.3981-0.23429 9.7736 1.6535 28.564-10.782 69.002-27.482 89.363l-2.8798 3.5113 0.004-13.511c0.004-14.89-1.5334-22.014-7.2225-33.464l-3.7031-7.4532-2.9926 10.366c-4.3089 14.925-13.617 34.955-23.604 50.791-17.178 27.24-21.849 39.902-21.849 59.228 0 12.378 2.4495 24.316 8.0476 39.22 2.3723 6.3159 4.1584 11.638 3.9692 11.828-0.1893 0.1893-6.5523-3.51-14.14-8.2207z"/>
</svg>
