<?xml version="1.0" encoding="UTF-8" standalone="no"?>
<!-- Created with Inkscape (http://www.inkscape.org/) -->

<svg
   xmlns:dc="http://purl.org/dc/elements/1.1/"
   xmlns:cc="http://creativecommons.org/ns#"
   xmlns:rdf="http://www.w3.org/1999/02/22-rdf-syntax-ns#"
   xmlns:svg="http://www.w3.org/2000/svg"
   xmlns="http://www.w3.org/2000/svg"
   xmlns:sodipodi="http://sodipodi.sourceforge.net/DTD/sodipodi-0.dtd"
   xmlns:inkscape="http://www.inkscape.org/namespaces/inkscape"
   id="svg3672"
   height="480"
   viewBox="0 0 480 480"
   width="480"
   version="1.1"
   inkscape:version="0.91 r13725"
   sodipodi:docname="general.svg">
  <defs
     id="defs3608" />
  <sodipodi:namedview
     pagecolor="#ffffff"
     bordercolor="#666666"
     borderopacity="1"
     objecttolerance="10"
     gridtolerance="10"
     guidetolerance="10"
     inkscape:pageopacity="0"
     inkscape:pageshadow="2"
     inkscape:window-width="1534"
     inkscape:window-height="1094"
     id="namedview3606"
     showgrid="false"
     inkscape:zoom="1.3906433"
     inkscape:cx="131.80332"
     inkscape:cy="360.66887"
     inkscape:window-x="0"
     inkscape:window-y="27"
     inkscape:window-maximized="0"
     inkscape:current-layer="svg3672" />
  <metadata
     id="metadata3678">
    <rdf:RDF>
      <cc:Work
         rdf:about="">
        <dc:format>image/svg+xml</dc:format>
        <dc:type
           rdf:resource="http://purl.org/dc/dcmitype/StillImage" />
        <dc:title />
      </cc:Work>
    </rdf:RDF>
  </metadata>
  <path
     id="path"
     d="m 223.87155,417.14849 c -3.2805,-3.0432 -38.423,-42.822 -42.549,-48.162 -1.7965,-2.3253 -2.6746,-5.124 -2.6746,-8.5248 0,-5.1797 1.3331,-7.2021 8.8479,-13.423 5.9135,-4.895 3.8615,-16.522 -4.4822,-25.396 -7.5602,-8.041 -18.694,-11.067 -23.401,-6.3592 -1.2296,1.2296 -2.6247,4.3095 -3.1002,6.8442 -3.7717,20.105 -22.847,27.786 -42.711,17.198 -11.944,-6.3661 -20.127,-17.576 -22.896,-31.367 -1.7352,-8.64 0.84482,-18.139 6.5775,-24.218 l 4.009,-4.2508 -20.206,-22.852 c -11.114,-12.569 -20.544,-24.196 -20.956,-25.839 -0.43945,-1.7509 -0.07327,-3.9365 0.88487,-5.2815 1.5895,-2.2312 42.563,-38.808 49.496,-44.185 2.0369,-1.5797 5.1485,-2.6848 7.5596,-2.6848 4.2238,0 11.179,2.8965 11.179,4.6556 0,0.54667 1.3242,2.4228 2.9427,4.1692 2.3582,2.5446 4.0361,3.1752 8.4478,3.1752 12.345,0 25.809,-12.802 25.809,-24.54 0,-5.3087 -2.9721,-8.4496 -9.0798,-9.5954 -35.936,-6.7416 -24.918,-57.757999 14.169,-65.607999 8.6582,-1.7388 18.138,0.84366 24.247,6.6055 l 4.2805,4.036999 22.786,-20.224999 c 12.532,-11.124 24.146,-20.567 25.809,-20.984 1.7877,-0.44868 3.9716,-0.09071 5.3419,0.87559 2.2286,1.5716 38.64,42.382999 44.16,49.495999 1.5815,2.038 2.6864,5.1472 2.6864,7.5596 0,4.2238 -2.8965,11.179 -4.6556,11.179 -0.54667,0 -2.4228,1.3242 -4.1692,2.9427 -7.9198,7.3399 -0.93724,24.945 12.677,31.962 5.7121,2.9442 12.273,2.9698 15.183,0.0593 1.2296,-1.2296 2.6247,-4.3095 3.1002,-6.8442 6.7416,-35.936 57.758,-24.918 65.608,14.169 1.7381,8.6548 -0.84389,18.138 -6.6002,24.242 l -4.0317,4.2748 20.844,23.519 c 14.37,16.23 20.85,24.41 20.85,26.35 0,3.6569 -1.5162,5.2141 -26.4,27.114 -26.892,23.667 -27.112,23.831 -32.021,23.831 -4.2238,0 -11.179,-2.8965 -11.179,-4.6556 0,-0.54667 -1.3242,-2.4228 -2.9427,-4.1692 -2.3582,-2.5446 -4.0361,-3.1752 -8.4478,-3.1752 -12.345,0 -25.809,12.802 -25.809,24.54 0,5.3087 2.9721,8.4496 9.0798,9.5954 35.936,6.7416 24.918,57.758 -14.169,65.608 -8.6582,1.7388 -18.138,-0.84366 -24.247,-6.6055 l -4.2805,-4.037 -22.574,20.038 c -26.8,23.78 -27.41,24.14 -32.99,18.96 z m 27.138,-34.914 c 11.351,-10.128 21.818,-19.038 23.26,-19.8 1.4416,-0.76223 4.6139,-1.3859 7.0495,-1.3859 3.7389,0 5.3335,0.93416 10.242,6 5.2103,5.3774 6.3466,5.9973 10.951,5.9736 6.8637,-0.0353 13.874,-3.3912 18.797,-8.998 10.929,-12.447 9.4338,-22.651 -3.7518,-25.602 -22.252,-4.9798 -26.991,-31.598 -9.1097,-51.163 6.7076,-7.3392 17.203,-13.078 26.385,-14.428 7.8223,-1.1497 17.862,1.9432 23.006,7.0872 l 4.0085,4.0085 14.901,-13.214 c 8.1953,-7.2677 16.94,-15.037 19.433,-17.265 l 4.5319,-4.0511 -18.446,-20.674 c -10.15,-11.38 -19.07,-21.86 -19.83,-23.3 -0.77,-1.44 -1.39,-4.61 -1.39,-7.05 0,-3.7524 0.93731,-5.3366 6.1404,-10.378 6.1398,-5.949 6.1403,-5.9502 5.5978,-12.493 -0.92192,-11.117 -11.489,-22.653 -22.039,-24.061 -6.7024,-0.89397 -10.462,2.3678 -12.325,10.693 -4.9798,22.252 -31.598,26.991 -51.163,9.1097 -7.3392,-6.7076 -13.078,-17.203 -14.428,-26.385 -1.1497,-7.8223 1.9432,-17.862 7.0872,-23.006 l 4.0085,-4.0085 -13.214,-14.901 c -7.2677,-8.195299 -15.037,-16.939999 -17.265,-19.432999 l -4.0511,-4.532 -20.674,18.446 c -11.371,10.144999 -21.854,19.069999 -23.295,19.831999 -1.4416,0.76222 -4.6139,1.3858 -7.0495,1.3858 -3.7524,0 -5.3366,-0.9373 -10.378,-6.1404 -5.949,-6.1398 -5.9502,-6.1403 -12.493,-5.5978 -11.117,0.92192 -22.653,11.489 -24.061,22.039 -0.89689,6.7243 2.3635,10.461 10.769,12.342 8.2992,1.8573 15.496,7.8232 18.303,15.172 2.6743,7.0025 1.8611,18.472 -1.8216,25.69 -6.2921,12.334 -20.57,22.762 -33.832,24.711 -7.8223,1.1497 -17.862,-1.9432 -23.006,-7.0872 l -4.0085,-4.0085 -14.901,13.214 c -8.1953,7.2677 -16.94,15.037 -19.433,17.265 l -4.532,4.0511 18.446,20.674 c 10.145,11.371 19.07,21.854 19.832,23.295 0.76222,1.4416 1.3858,4.6139 1.3858,7.0495 0,3.7389 -0.93416,5.3335 -6,10.242 -5.4769,5.3067 -6,6.2918 -6,11.298 0,6.7882 3.2464,13.376 9.142,18.553 12.327,10.823 22.545,9.2772 25.484,-3.8552 5.1282,-22.915 32.911,-27.163 52.107,-7.9672 7.4594,7.4594 12.112,16.204 13.482,25.343 1.155,7.7024 -1.9597,17.78 -7.0769,22.897 l -3.9998,3.9998 16.931,19.315 c 9.3119,10.623 17.093,19.358 17.292,19.409 0.19883,0.0517 9.6488,-8.1923 21,-18.32 z"
     inkscape:connector-curvature="0" />
</svg>
