<?xml version="1.0" encoding="UTF-8" standalone="no"?>
<!-- Created with Inkscape (http://www.inkscape.org/) -->
<svg id="svg3451" xmlns:rdf="http://www.w3.org/1999/02/22-rdf-syntax-ns#" xmlns="http://www.w3.org/2000/svg" height="857.7" viewBox="0 0 656.70001 857.70001" width="656.7" version="1.1" xmlns:cc="http://creativecommons.org/ns#" xmlns:dc="http://purl.org/dc/elements/1.1/">
 <metadata id="metadata3457">
  <rdf:RDF>
   <cc:Work rdf:about="">
    <dc:format>image/svg+xml</dc:format>
    <dc:type rdf:resource="http://purl.org/dc/dcmitype/StillImage"/>
    <dc:title/>
   </cc:Work>
  </rdf:RDF>
 </metadata>
 <g id="g3461">
  <path id="path3467" fill="#fefefe" d="m0 428.85v-428.85h328.35 328.35v428.85 428.85h-328.35-328.35v-428.85z"/>
  <path id="path3465" fill="#face01" d="m395.04 848.09c-1.4372-0.75903-2.5156-2.1973-2.9149-3.8878-0.17535-0.7425-2.4855-23.22-5.1336-49.95s-4.9245-48.802-5.0586-49.05c-0.1341-0.2475-1.3779-0.75009-2.7639-1.1169-12.412-3.2844-21.825-8.5855-30.886-17.394-3.603-3.5024-3.8756-3.7009-6.3-4.5885-4.1173-1.5075-9.8001-4.3804-13.334-6.741-6.0703-4.0548-10.275-8.6426-12.888-14.062-1.7541-3.6381-2.1949-5.4791-2.5942-10.835l-0.33459-4.487-1.9048-2.1841c-4.7039-5.3935-7.626-11.093-8.9921-17.541-0.72312-3.4126-1.043-8.1855-0.75057-11.201l0.26178-2.7-1.1583-1.8c-3.1657-4.9194-5.597-11.287-6.6437-17.4-1.062-6.2025-0.41263-14.906 1.7079-22.892 0.60843-2.2913 0.68935-3.0244 0.45119-4.0871-0.15962-0.71223-0.43283-2.5539-0.60713-4.0926-0.17431-1.5387-0.37332-2.854-0.44226-2.923-0.0689-0.0689-1.9877 1.7989-4.2638 4.1508-7.8725 8.1343-16.452 14.588-26.352 19.821-2.5826 1.3652-4.179 2.4526-5.6898 3.8759-6.0518 5.701-13.027 8.4398-26.445 10.383-4.6326 0.67098-13.538 0.66978-18.784-0.003-14.908-1.9102-28.909-6.6767-39.924-13.591-11.813-7.4157-22.565-17.66-28.386-27.044-4.2263-6.8143-6.1414-12.336-7.043-20.307-0.24197-2.1395-0.64886-5.6442-0.90419-7.7882-0.92758-7.789-0.47093-14.582 1.2022-17.884 1.3443-2.6528 9.83-12.681 14.726-17.402 8.929-8.6107 17.125-13.35 25.564-14.782l2.5063-0.4254 1.9222-2.1061c7.751-8.4926 19.294-10.971 31.426-6.7487 1.6598 0.57774 3.5215 1.3074 4.1371 1.6215 0.61561 0.31407 1.1786 0.47079 1.251 0.34827s-0.18343-1.4646-0.5686-2.9824-0.90346-4.1235-1.1518-5.7906l-0.45145-3.0311-1.9279-2.0823c-4.9045-5.2973-8.2778-10.169-11.311-16.336-4.0188-8.1709-5.9371-15.437-6.5646-24.864-0.8967-13.473 2.5432-28.548 9.9475-43.595 0.8279-1.6824 1.432-3.2498 1.3425-3.4831-0.0895-0.23322-2.233-1.5397-4.7632-2.9031-40.8-22.01-76.43-46.84-105.09-73.26-6.571-6.06-19.335-18.96-24.552-24.81-37.867-42.48-59.75-87.94-64.864-134.76-1.0456-9.57-0.9007-24.13 0.323-32.53 1.7589-12.074 7.9258-20.901 16.881-24.163 6.6982-2.4394 13.661-1.9816 24.202 1.5914 23.284 7.8918 50.437 24.7 80.974 50.123 26.227 21.835 54.185 49.436 83.699 82.63 1.9546 2.1983 3.6616 3.8858 3.7932 3.75 0.13166-0.13583 0.8009-1.9345 1.4872-3.997 5.6172-16.881 15.32-33.554 27.409-47.098 10.198-11.426 24.644-21.401 40.389-27.888 2.0625-0.84984 4.0538-1.6702 4.425-1.823 0.37125-0.15279 0.675-0.43442 0.675-0.62584 0-0.6507-3.437-4.5971-7.95-9.1281-4.3056-4.3228-11.998-10.977-12.933-11.186-0.37168-0.0833-0.40526 0.16165-0.20563 1.5 0.13122 0.87979 0.22476 2.7471 0.20785 4.1496-0.0669 5.5495-2.4755 10.104-6.188 11.701-1.2889 0.55448-1.9422 0.6457-3.8181 0.5331-3.0184-0.18118-4.9271-1.1682-7.7058-3.9846-3.817-3.8689-6.1346-9.725-6.1735-15.6-0.0335-5.0508 1.2673-8.6166 4.059-11.127 1.5434-1.3876 3.6541-2.2263 5.5866-2.2199 3.6536 0.0122 9.2058 2.8416 16.821 8.5719 8.7242 6.5651 15.94 13.334 22.286 20.906 1.6088 1.9195 3.0314 3.5558 3.1615 3.6362 0.13005 0.0804 2.1354-0.37502 4.4564-1.012 10.593-2.9072 19.937-4.2575 34.896-5.043l4.05-0.21267 0.23076-4.2c0.47301-8.6093 1.7674-16.312 3.5212-20.954 0.36438-0.96443 1.4481-2.9219 2.4083-4.35 4.961-7.3786 11.479-10.574 18.152-8.8973 11.205 2.8148 24.155 18.831 24.257 30.001 0.0177 1.9423-0.11283 2.6756-0.68505 3.8448-2.5532 5.2171-10.332 3.8021-18.438-3.3541-6.5436-5.7766-8.7204-10.157-9.1522-18.418-0.19185-3.6698-0.28779-4.1996-0.86508-4.7769-0.59121-0.5912-0.75657-0.61718-1.8477-0.29027-2.591 0.77628-6.8147 5.8389-8.1042 9.7139-1.3554 4.0729-2.7269 14.008-2.7269 19.753v2.3262l2.325 0.19273c27.803 2.3047 50.417 10.693 68.54 25.426 6.8509 5.569 12.978 12.327 17.753 19.583 1.4118 2.145 2.7576 4.17 2.9908 4.5 0.50823 0.71943 0.0446 1.6378 5.604-11.1 11.624-26.633 26.674-56.74 40.109-80.237 18.756-32.803 36.334-58.203 55.235-79.813 5.0758-5.8032 18.344-19.119 22.543-22.623 5.9989-5.0065 12.603-8.9761 17.704-10.641 14.065-4.5912 26.062 1.2941 33.145 16.26 2.0147 4.257 3.2419 8.1191 4.3417 13.663 2.5703 12.957 3.8986 28.388 3.9031 45.341 0.0183 69.747-23.293 144.97-67.181 216.78-1.9869 3.2511-3.6102 6.0596-3.6072 6.2411 0.003 0.18156 1.0954 1.8826 2.4278 3.7801 13.552 19.3 25.47 45.304 35.957 78.45 2.6879 8.4959 2.801 8.7739 4.8233 11.85 1.139 1.7325 2.8611 4.1625 3.8269 5.4 8.029 10.288 33.372 43.987 35.646 47.4 2.2358 3.3554 2.9578 4.6945 4.7629 8.8331 3.1298 7.1762 4.9652 13.603 5.4024 18.917 0.39594 4.8114-0.74934 12.663-2.7551 18.888-5.4513 16.918-14.39 34.419-20.558 40.253-2.2123 2.0923-3.7153 2.98-6.769 3.9978-4.6637 1.5545-14.091 2.4729-19.196 1.87-2.3562-0.27828-2.5837-0.25143-4.65 0.54879-6.163 2.3867-11.604 2.5684-22.423 0.74856-7.7097-1.2969-11.529-2.6651-13.808-4.9464-1.5386-1.5401-2.0917-2.9952-2.0917-5.5034v-1.6742l-1.575-1.0466c-4.696-3.1206-7.0971-6.7427-7.711-11.633l-0.25782-2.0532-3.2117-3.3748c-6.3618-6.6849-9.4503-11.633-10.97-17.574-1.6418-6.4193 0.18309-14.944 4.5904-21.444l1.182-1.7432-1.0732-3.3568c-2.0131-6.297-2.877-12.184-2.868-19.545 0.005-4.2069 0.53682-10.263 1.0403-11.849 0.12474-0.39306-0.94152-1.6097-4.1139-4.6941-2.3553-2.2899-7.0539-6.8983-10.441-10.241-3.39-3.35-6.3-6.08-6.46-6.08-0.16734 0-0.87462 1.6918-1.5717 3.7596-3.3873 10.047-9.0916 21.297-16.43 32.403-6.9806 10.564-11.954 22.509-15.731 37.788-2.534 10.248-4.2099 19.5-6.1546 33.978l-0.77613 5.7781 1.7833 2.1719c5.0158 6.1091 8.758 13.473 10.872 21.395 0.99447 3.7264 1.4977 10.161 1.246 15.933l-0.13329 3.0566 1.9712 2.6434c3.4452 4.6199 6.2824 10.842 7.2707 15.945 0.50706 2.618 0.56385 9.9073 0.10974 14.085-0.33978 3.1262-1.479 8.6145-2.4216 11.666l-0.58005 1.8779 0.93951 1.8611c1.9236 3.8107 3.1378 10.882 2.6222 15.272-0.88851 7.5635-4.1031 16.182-8.6721 23.25l-1.7546 2.7144 0.32154 2.8356c0.52821 4.6578 0.21267 8.9146-0.92181 12.436-1.3051 4.0506-3.7868 8.9995-6.2405 12.445-3.6306 5.0978-10.26 11.185-16.314 14.98-1.5711 0.98475-2.2882 1.6996-3.4215 3.4108-6.5357 9.8682-15.688 17.864-26.886 23.488-3.2022 1.6082-4.6614 2.2115-9.3961 3.8844-1.9752 0.69789-3.6939 1.4543-3.8194 1.6809-0.12549 0.22662-3.6773 22.89-7.893 50.362-4.2822 27.906-7.8743 50.435-8.1394 51.049-0.56646 1.3117-2.0324 2.7919-3.2015 3.2327-1.3398 0.50511-3.8246 0.36099-5.0644-0.29379zm5.6165-70.004c1.0837-18.462 1.9299-33.777 1.8805-34.033-0.077-0.39966-0.8766-0.47373-5.5724-0.51618-3.0154-0.0273-5.548 0.0562-5.6279 0.18561-0.12972 0.20991 6.166 64.457 6.6419 67.78 0.15756 1.1001 0.24096 1.2389 0.45048 0.75 0.14139-0.33 1.1438-15.705 2.2274-34.167zm-171.82-149.61c8.1402-0.8976 15.551-2.8636 19.413-5.1497 3.8427-2.2749 9.1562-8.1958 13.131-14.633 2.5005-4.0489 3.8186-8.5498 3.8186-13.039 0-3.0754-0.68182-5.4215-2.278-7.8384-2.019-3.057-6.722-7.6505-6.722-6.5655 0 0.0843 0.22564 1.468 0.50142 3.075 0.70574 4.1123 0.70744 13.851 0.003 16.572-1.0266 3.9645-4.3724 9.6-5.6996 9.6-0.25538 0-0.56554-0.30375-0.68924-0.675-0.29744-0.89268-0.20267-6.256 0.17361-9.825 1.7415-16.518-3.0383-30.649-12.02-35.538-2.2084-1.202-2.2874-1.0923-1.9626 2.7286 0.52374 6.163-0.62629 15.615-2.4811 20.391-2.49 6.41-9.03 12.22-9.03 8.03 0-0.61212 0.81453-3.519 1.8101-6.4598 2.8562-8.4372 3.1163-9.9442 3.1228-18.096 0.005-6.0465-0.075-7.2404-0.64528-9.6517-1.7861-7.5515-4.896-11.735-10.149-13.652-2.3463-0.85635-6.2227-0.92643-8.4443-0.1527-4.6377 1.6152-9.5229 6.3179-17.354 16.706-3.8858 5.1546-7.8734 8.7232-9.8429 8.8088-0.85505 0.0372-0.95573-0.0514-1.0393-0.91389-0.2097-2.1647 2.4034-7.2615 6.5085-12.695 5.7406-7.598 9.5116-11.696 13.429-14.593 2.5383-1.8772 2.5002-1.65 0.84845-5.0572-2.0422-4.2124-5.3583-7.2687-10.757-9.9143-7.0803-3.4695-12.715-3.3802-20.136 0.31872-5.777 2.8797-11.355 7.6297-19.048 16.22-5.817 6.4956-7.1012 8.2452-7.5172 10.241-0.53735 2.5786-0.13759 8.116 1.5183 21.031 0.79572 6.2063 3.9025 12.727 9.3159 19.553 2.4124 3.042 8.7259 9.267 12.281 12.109 3.2366 2.5872 9.4693 6.7756 13.355 8.975 12.753 7.2174 32.961 11.597 46.581 10.095zm5.1959-76.24c1.1917-2.2267 1.5272-7.2828 0.69981-10.546-1.9636-7.7431-11.38-18.103-20.383-22.427-6.7402-3.2367-14.158-3.6096-19.578-0.98427-1.9076 0.92403-4.6486 3.0389-4.5034 3.4746 0.0577 0.1731 0.90953 0.61731 1.893 0.98709 8.148 3.0639 14.597 8.7901 17.42 15.468 0.45054 1.0657 0.93739 2.0718 1.0819 2.2359 0.15211 0.17271 1.4887 0.2568 3.1744 0.19968 7.7113-0.26127 14.504 3.5132 18.224 10.127 0.65313 1.1611 1.284 2.1141 1.402 2.118 0.11794 0.004 0.37367-0.29058 0.56829-0.65424zm352.4-10.749c3.7707-0.61191 6.9077-2.2784 8.3682-4.4456 0.9588-1.4228 1.2191-3.1332 1.9014-12.494 1.1676-16.018 1.7838-19.304 4.7272-25.2 2.3361-4.6799 4.4421-7.35 5.7972-7.35 1.8537 0 1.4792 4.6731-0.93915 11.719-1.0866 3.1658-1.4375 4.7806-1.039 4.7806 0.0835 0 2.0095-0.8679 4.2802-1.9287 3.9404-1.8409 7.4825-3.1759 9.5933-3.6158 0.74004-0.15426 1.0188-0.0898 1.1557 0.26691 0.56823 1.4808-4.8375 7.3-8.8042 9.4776-1.3525 0.7425-2.4631 1.4838-2.4679 1.6473-0.005 0.16356 0.48174 1.2901 1.0813 2.5035 1.841 3.7259 1.6624 5.7719-0.46317 5.3051-0.78174-0.17172-2.8084-1.389-5.06-3.0392-0.37566-0.27534-0.75582-0.42783-0.84477-0.33891-0.0889 0.0889-0.35289 2.8416-0.58653 6.1169-0.54288 7.6095-0.9285 10.826-1.488 12.412-0.72924 2.0669-0.70719 2.0936 1.7274 2.0908 5.2238-0.006 11.168-1.0921 13.27-2.4247 4.5359-2.8766 13.043-18.935 18.6-35.109 3.7285-10.853 4.0656-17.699 1.2975-26.353-1.1883-3.7154-4.0257-10.226-5.6431-12.948-0.70113-1.1802-7.1723-9.9908-14.38-19.579-16.669-22.174-18.109-24.033-18.604-24.033-0.23829 0-0.70305 0.87474-1.1158 2.1-1.9993 5.9355-5.6381 11.655-10.252 16.114-6.795 6.5672-15.168 10.203-25.378 11.021-4.9182 0.39363-11.785-0.33546-15.498-1.6455-2.2195-0.78306-2.2635-0.74733-2.6903 2.1855-0.83436 5.7337-0.28611 15.36 1.2046 21.15 1.0073 3.9129 2.3645 6.9756 2.8679 6.4722 0.11088-0.11085 0.44634-1.4654 0.74553-3.0102 0.66498-3.4336 1.7631-6.7696 3.3302-10.117 1.6161-3.4523 2.5071-4.5801 3.5252-4.4623 0.67743 0.0784 0.83847 0.29157 1.0764 1.4248 0.37128 1.7684-0.16848 6.9859-1.3208 12.767-1.3157 6.6016-1.1767 9.4258 0.6555 13.312 0.71997 1.527 1.8157 2.8482 5.4435 6.563 2.4981 2.5581 6.5808 6.4522 9.0725 8.6536l4.5304 4.0026-0.0213 5.4844c-0.0153 3.9827 0.12948 6.4067 0.52923 8.8526 0.30273 1.8525 0.47883 3.5548 0.39129 3.7829-0.0916 0.23859-0.83742 0.50475-1.7561 0.62661-2.0982 0.27834-3.4174 0.93249-4.862 2.4109-2.1197 2.1693-3.7742 6.7783-3.7869 10.55-0.006 1.7736 0.10239 1.8514 3.7337 2.6784 7.0835 1.6132 14.214 2.2525 18.097 1.6224zm-26.063-14.164c1.2728-2.8144 3.3189-5.3748 5.5905-6.9958l2.0132-1.4366-0.18624-1.9713c-0.10242-1.0842-0.1872-3.4745-0.18837-5.3117l-0.003-3.3404-3.575-3.1846c-1.9654-1.7515-3.702-3.1846-3.8582-3.1846-0.15621 0-0.6315 0.77625-1.0562 1.725-1.6459 3.6764-3.1029 10.093-3.8128 16.791-0.38616 3.643-0.12507 4.9756 1.2907 6.5882 0.7842 0.89316 2.4681 2.1901 2.8499 2.195 0.0481 0 0.46914-0.84264 0.93549-1.8739zm-9.6054-18.495c1.0447-4.3101 2.2378-7.6232 3.6596-10.162 0.97242-1.7365 0.92613-2.0618-0.47937-3.3677-2.782-2.5849-5.215-6.7024-6.1725-10.446-0.32103-1.2552-0.69864-2.3972-0.83916-2.5377-0.47457-0.47457-3.0671 2.9138-4.54 5.9337-3.0776 6.31-3.0362 10.816 0.15168 16.516 1.7614 3.1498 6.6095 8.8522 7.0614 8.3059 0.10107-0.12219 0.62226-2.0312 1.1582-4.2423zm-274.02-61.84c3.7787-1.7209 12.802-5.313 17.7-7.0466 2.64-0.93432 4.9145-1.81 5.0544-1.946 0.13992-0.13596-2.1316-2.0276-5.0478-4.2035-7.1843-5.3606-14.735-11.419-21.06-16.898-8.7208-7.5541-10.695-9.2072-10.993-9.2072-0.42901 0-0.0248 11.322 0.53017 14.85 1.0549 6.7065 3.1524 13.622 5.6417 18.6 1.3839 2.7675 3.6691 6.4366 4.3323 6.9558 0.50213 0.39312 0.64114 0.35316 3.8424-1.1048zm-58.297-47.626 1.6721-2.625 0.19934-5.1c0.50918-13.028 2.5816-25.266 6.1407-36.261l0.8614-2.6613-1.6368-4.8387c-5.8858-17.4-8.815-34.787-8.8258-52.389-0.005-8.266 0.32091-13.01 1.4302-20.814 0.46527-3.2732 0.66367-5.5764 0.509-5.909-0.59-1.28-17.71-20.6-28.68-32.37-12.76-13.68-36.05-36.53-49.41-48.47-36.87-32.94-70.424-54.57-96.572-62.26-4.1334-1.2154-9.9645-1.548-12.798-0.73003-2.6782 0.77302-4.4865 1.881-6.3883 3.914-5.2157 5.5756-6.8535 13.45-6.5508 31.497 0.24349 14.515 1.9152 26.114 5.9218 41.088 18.814 70.315 77.853 135.84 169.96 188.64 10.158 5.8228 21.434 11.92 22.046 11.921 0.25811 0.00012 1.2109-1.1698 2.1377-2.6248zm233.1-2.1751c1.7035-0.18483 3.5698-0.42915 4.1473-0.54297l1.05-0.20691-0.0851-2.1c-0.13749-3.3934-0.65559-7.2589-1.4676-10.95-0.80541-3.6611-1.2001-4.7244-1.5986-4.3072-0.13515 0.14148-0.8172 2.0797-1.5157 4.3072-0.69846 2.2275-2.0613 6.2552-3.0285 8.9504-1.6862 4.6988-1.8679 5.6725-0.99645 5.338 0.21852-0.0838 1.7911-0.30369 3.4946-0.48855zm-202.85-72.44c0.85941-2.145 2.9562-6.735 4.6595-10.2 9.4693-19.263 21.509-34.728 34.793-44.692 1.815-1.3613 3.6038-2.6613 3.975-2.8888 0.37125-0.22748 0.675-0.63372 0.675-0.90277 0-0.43182-3.8476-5.7927-6.866-9.5665-2.403-3.0044-6.9075-8.2942-7.6351-8.9663l-0.77547-0.71629-2.0367 1.8091c-2.7781 2.4677-7.9031 7.7832-10.484 10.873-11.761 14.084-18.763 29.506-20.498 45.15-0.38366 3.4581-0.3851 10.922-0.003 14.4 0.36065 3.2812 1.4612 9.086 1.8718 9.873 0.37562 0.71988 0.33287 0.79665 2.324-4.173zm220.05-18.727c4.7024-3.0562 10.41-6.2966 16.72-9.4934 3.4412-1.7432 5.8121-3.1782 7.5367-4.5616 10.789-8.6549 23.622-10.265 35.293-4.4282 4.6986 2.3499 7.117 4.2389 12.993 10.149 5.2251 5.2553 5.6736 5.6345 6.0551 5.1182 1.7761-2.4034 12.59-21.008 17.326-29.808 30.722-57.085 48.028-114.79 51.22-170.81 0.39306-6.8964 0.39147-26.201-0.003-32.592-0.84-13.722-2.76-26.954-4.86-33.6-2.55-8.089-6.72-13.88-11.81-16.394-2.34-1.156-2.34-1.156-6.1-1.156-4.3191 0-6.0689 0.45574-10.552 2.7485-5.6764 2.9027-11.085 7.3064-20.379 16.592-31.645 31.617-63.839 81.49-94.997 147.16-7.3324 15.454-19.888 44.33-19.888 45.74 0 0.18203 0.89139 1.3725 1.9808 2.6456 6.84 7.9925 11.859 18.572 14.193 29.915 2.5599 12.442 3.0218 32.094 1.0349 44.025-0.13557 0.8142-0.0807 1.125 0.19866 1.125 0.21231 0 2.0316-1.0695 4.0428-2.3766zm-12.75-21.46c0-1.1643-2.2234-8.8975-3.4659-12.055-6.957-17.678-20.374-31.512-40.184-41.432-4.4994-2.2532-12.332-5.4756-13.308-5.4756-0.75423 0-0.78291 0.15016-1.5196 7.95-1.1207 11.865-1.3196 15.485-0.87294 15.89 0.22053 0.20007 1.481 0.66766 2.801 1.0391 16.584 4.6664 36.507 16.522 52.65 31.332 1.8975 1.7407 3.5512 3.1703 3.675 3.1769 0.12375 0.007 0.225-0.18472 0.225-0.42512z"/>
  <path id="path3463" fill="#023b6f" d="m395.04 848.09c-1.4372-0.75903-2.5156-2.1973-2.9149-3.8878-0.17535-0.7425-2.4855-23.22-5.1336-49.95s-4.9245-48.802-5.0586-49.05c-0.1341-0.2475-1.3779-0.75009-2.7639-1.1169-12.412-3.2844-21.825-8.5855-30.886-17.394-3.603-3.5024-3.8756-3.7009-6.3-4.5885-4.1173-1.5075-9.8001-4.3804-13.334-6.741-6.0703-4.0548-10.275-8.6426-12.888-14.062-1.7541-3.6381-2.1949-5.4791-2.5942-10.835l-0.33459-4.487-1.9048-2.1841c-4.7039-5.3935-7.626-11.093-8.9921-17.541-0.72312-3.4126-1.043-8.1855-0.75057-11.201l0.26178-2.7-1.1583-1.8c-3.1657-4.9194-5.597-11.287-6.6437-17.4-1.062-6.2025-0.41263-14.906 1.7079-22.892 0.60843-2.2913 0.68935-3.0244 0.45119-4.0871-0.15962-0.71223-0.43283-2.5539-0.60713-4.0926-0.17431-1.5387-0.37332-2.854-0.44226-2.923-0.0689-0.0689-1.9877 1.7989-4.2638 4.1508-7.8725 8.1343-16.452 14.588-26.352 19.821-2.5826 1.3652-4.179 2.4526-5.6898 3.8759-6.0518 5.701-13.027 8.4398-26.445 10.383-4.6326 0.67098-13.538 0.66978-18.784-0.003-14.908-1.9102-28.909-6.6767-39.924-13.591-11.813-7.4157-22.565-17.66-28.386-27.044-4.2263-6.8143-6.1414-12.336-7.043-20.307-0.24197-2.1395-0.64886-5.6442-0.90419-7.7882-0.92758-7.789-0.47093-14.582 1.2022-17.884 1.3443-2.6528 9.83-12.681 14.726-17.402 8.929-8.6107 17.125-13.35 25.564-14.782l2.5063-0.4254 1.9222-2.1061c7.751-8.4926 19.294-10.971 31.426-6.7487 1.6598 0.57774 3.5215 1.3074 4.1371 1.6215 0.61561 0.31407 1.1786 0.47079 1.251 0.34827s-0.18343-1.4646-0.5686-2.9824-0.90346-4.1235-1.1518-5.7906l-0.45145-3.0311-1.9279-2.0823c-4.9045-5.2973-8.2778-10.169-11.311-16.336-4.0188-8.1709-5.9371-15.437-6.5646-24.864-0.8967-13.473 2.5432-28.548 9.9475-43.595 0.8279-1.6824 1.432-3.2498 1.3425-3.4831-0.0895-0.23322-2.233-1.5397-4.7632-2.9031-40.8-22.01-76.43-46.84-105.09-73.26-6.571-6.06-19.335-18.96-24.552-24.81-37.867-42.48-59.75-87.94-64.864-134.76-1.0456-9.57-0.9007-24.13 0.323-32.53 1.7589-12.074 7.9258-20.901 16.881-24.163 6.6982-2.4394 13.661-1.9816 24.202 1.5914 23.284 7.8918 50.437 24.7 80.974 50.123 26.227 21.835 54.185 49.436 83.699 82.63 1.9546 2.1983 3.6616 3.8858 3.7932 3.75 0.13166-0.13583 0.8009-1.9345 1.4872-3.997 5.6172-16.881 15.32-33.554 27.409-47.098 10.198-11.426 24.644-21.401 40.389-27.888 2.0625-0.84984 4.0538-1.6702 4.425-1.823 0.37125-0.15279 0.675-0.43442 0.675-0.62584 0-0.6507-3.437-4.5971-7.95-9.1281-4.3056-4.3228-11.998-10.977-12.933-11.186-0.37168-0.0833-0.40526 0.16165-0.20563 1.5 0.13122 0.87979 0.22476 2.7471 0.20785 4.1496-0.0669 5.5495-2.4755 10.104-6.188 11.701-1.2889 0.55448-1.9422 0.6457-3.8181 0.5331-3.0184-0.18118-4.9271-1.1682-7.7058-3.9846-3.817-3.8689-6.1346-9.725-6.1735-15.6-0.0335-5.0508 1.2673-8.6166 4.059-11.127 1.5434-1.3876 3.6541-2.2263 5.5866-2.2199 3.6536 0.0122 9.2058 2.8416 16.821 8.5719 8.7242 6.5651 15.94 13.334 22.286 20.906 1.6088 1.9195 3.0314 3.5558 3.1615 3.6362 0.13005 0.0804 2.1354-0.37502 4.4564-1.012 10.593-2.9072 19.937-4.2575 34.896-5.043l4.05-0.21267 0.23076-4.2c0.47301-8.6093 1.7674-16.312 3.5212-20.954 0.36438-0.96443 1.4481-2.9219 2.4083-4.35 4.961-7.3786 11.479-10.574 18.152-8.8973 11.205 2.8148 24.155 18.831 24.257 30.001 0.0177 1.9423-0.11283 2.6756-0.68505 3.8448-2.5532 5.2171-10.332 3.8021-18.438-3.3541-6.5436-5.7766-8.7204-10.157-9.1522-18.418-0.19185-3.6698-0.28779-4.1996-0.86508-4.7769-0.59121-0.5912-0.75657-0.61718-1.8477-0.29027-2.591 0.77628-6.8147 5.8389-8.1042 9.7139-1.3554 4.0729-2.7269 14.008-2.7269 19.753v2.3262l2.325 0.19273c27.803 2.3047 50.417 10.693 68.54 25.426 6.8509 5.569 12.978 12.327 17.753 19.583 1.4118 2.145 2.7576 4.17 2.9908 4.5 0.50823 0.71943 0.0446 1.6378 5.604-11.1 11.624-26.633 26.674-56.74 40.109-80.237 18.756-32.803 36.334-58.203 55.235-79.813 5.0758-5.8032 18.344-19.119 22.543-22.623 5.9989-5.0065 12.603-8.9761 17.704-10.641 14.065-4.5912 26.062 1.2941 33.145 16.26 2.0147 4.257 3.2419 8.1191 4.3417 13.663 2.5703 12.957 3.8986 28.388 3.9031 45.341 0.0183 69.747-23.293 144.97-67.181 216.78-1.9869 3.2511-3.6102 6.0596-3.6072 6.2411 0.003 0.18156 1.0954 1.8826 2.4278 3.7801 13.552 19.3 25.47 45.304 35.957 78.45 2.6879 8.4959 2.801 8.7739 4.8233 11.85 1.139 1.7325 2.8611 4.1625 3.8269 5.4 8.029 10.288 33.372 43.987 35.646 47.4 2.2358 3.3554 2.9578 4.6945 4.7629 8.8331 3.1298 7.1762 4.9652 13.603 5.4024 18.917 0.39594 4.8114-0.74934 12.663-2.7551 18.888-5.4513 16.918-14.39 34.419-20.558 40.253-2.2123 2.0923-3.7153 2.98-6.769 3.9978-4.6637 1.5545-14.091 2.4729-19.196 1.87-2.3562-0.27828-2.5837-0.25143-4.65 0.54879-6.163 2.3867-11.604 2.5684-22.423 0.74856-7.7097-1.2969-11.529-2.6651-13.808-4.9464-1.5386-1.5401-2.0917-2.9952-2.0917-5.5034v-1.6742l-1.575-1.0466c-4.696-3.1206-7.0971-6.7427-7.711-11.633l-0.25782-2.0532-3.2117-3.3748c-6.3618-6.6849-9.4503-11.633-10.97-17.574-1.6418-6.4193 0.18309-14.944 4.5904-21.444l1.182-1.7432-1.0732-3.3568c-2.0131-6.297-2.877-12.184-2.868-19.545 0.005-4.2069 0.53682-10.263 1.0403-11.849 0.12474-0.39306-0.94152-1.6097-4.1139-4.6941-2.3553-2.2899-7.0539-6.8983-10.441-10.241-3.39-3.35-6.3-6.08-6.46-6.08-0.16734 0-0.87462 1.6918-1.5717 3.7596-3.3873 10.047-9.0916 21.297-16.43 32.403-6.9806 10.564-11.954 22.509-15.731 37.788-2.534 10.248-4.2099 19.5-6.1546 33.978l-0.77613 5.7781 1.7833 2.1719c5.0158 6.1091 8.758 13.473 10.872 21.395 0.99447 3.7264 1.4977 10.161 1.246 15.933l-0.13329 3.0566 1.9712 2.6434c3.4452 4.6199 6.2824 10.842 7.2707 15.945 0.50706 2.618 0.56385 9.9073 0.10974 14.085-0.33978 3.1262-1.479 8.6145-2.4216 11.666l-0.58005 1.8779 0.93951 1.8611c1.9236 3.8107 3.1378 10.882 2.6222 15.272-0.88851 7.5635-4.1031 16.182-8.6721 23.25l-1.7546 2.7144 0.32154 2.8356c0.52821 4.6578 0.21267 8.9146-0.92181 12.436-1.3051 4.0506-3.7868 8.9995-6.2405 12.445-3.6306 5.0978-10.26 11.185-16.314 14.98-1.5711 0.98475-2.2882 1.6996-3.4215 3.4108-6.5357 9.8682-15.688 17.864-26.886 23.488-3.2022 1.6082-4.6614 2.2115-9.3961 3.8844-1.9752 0.69789-3.6939 1.4543-3.8194 1.6809-0.12549 0.22662-3.6773 22.89-7.893 50.362-4.2822 27.906-7.8743 50.435-8.1394 51.049-0.56646 1.3117-2.0324 2.7919-3.2015 3.2327-1.3398 0.50511-3.8246 0.36099-5.0644-0.29379zm5.6165-70.004c1.0837-18.462 1.9299-33.777 1.8805-34.033-0.077-0.39966-0.8766-0.47373-5.5724-0.51618-3.0154-0.0273-5.548 0.0562-5.6279 0.18561-0.12972 0.20991 6.166 64.457 6.6419 67.78 0.15756 1.1001 0.24096 1.2389 0.45048 0.75 0.14139-0.33 1.1438-15.705 2.2274-34.167zm4.9424-58.511c16.098-1.7575 29.319-4.9931 40.8-9.9851 5.3454-2.3242 8.1-3.8935 8.1-4.6144 0-0.64158-1.0856-2.4839-2.5141-4.2668-1.484-1.8521-4.0803-3.3973-6.6798-3.9756-2.9338-0.65271-4.9189-0.4485-9.2288 0.94935-7.1611 2.3226-16.927 4.5284-25.677 5.7998-8.9418 1.2992-14.153 1.6428-25.05 1.6519-12.456 0.0105-19.05-0.54045-29.058-2.4279-3.6586-0.68997-4.3492-0.74151-5.7465-0.42882-3.581 0.80139-6.7102 3.2277-8.5046 6.5944-1.3897 2.6072-1.3222 2.8183 1.2344 3.8662 9.1504 3.7504 21.812 6.3708 35.625 7.3727 4.0114 0.29097 22.532-0.0806 26.7-0.53565zm-7.05-21.178c26.86-2.2891 50.357-10.054 66.375-21.935 1.5262-1.132 2.775-2.1479 2.775-2.2576 0-0.55752-2.0133-3.2136-3.5301-4.657-3.1562-3.0038-5.9656-4.1448-10.204-4.1448-2.4891 0-2.5979 0.0321-7.5206 2.2171-9.1168 4.0467-15.879 6.3484-25.695 8.7459-23.935 5.8461-50.98 6.1161-72.929 0.72798-1.9961-0.49002-4.1615-0.89094-4.812-0.89094-1.4985 0-4.3597 0.73527-6.1088 1.5699-1.9392 0.92532-4.8106 3.9216-5.9444 6.203-1.448 2.9136-1.4218 2.9762 1.9368 4.644 11.158 5.5406 25.981 8.999 43.201 10.079 4.864 0.30519 17.292 0.13794 22.457-0.30222zm-9-23.999c30.323-1.6453 57.089-10.661 75.15-25.314 3.0428-2.4686 7.5-6.7776 7.5-7.2506 0-0.57309-2.257-2.4146-4.8-3.9162-4.7327-2.7947-10.593-3.94-15.92-3.1113-2.1751 0.33837-3.1717 0.73764-7.9094 3.1685-15.108 7.752-30.012 11.822-48.921 13.36-5.6564 0.46002-21.499 0.18498-26.85-0.46614-8.2994-1.0099-16.304-2.6096-22.658-4.5281-4.3023-1.299-5.7364-1.4673-9.0602-1.0632-5.2929 0.64356-9.5962 2.684-13.208 6.2627-2.2315 2.2112-4.0407 4.737-3.9066 5.4538 0.25713 1.374 12.031 7.9277 18.533 10.316 15.067 5.5341 33.768 8.0812 52.05 7.0892zm9.3-29.843c19.396-2.2604 36.117-7.8928 49.05-16.522 7.7303-5.158 14.47-11.764 19.07-18.694l1.4694-2.2135-1.4531-1.3156c-3.4045-3.0823-8.0591-4.8827-13.26-5.1292-6.3802-0.30234-10.974 1.0491-17.101 5.0311-10.988 7.1408-21.802 11.02-36.425 13.067-4.6442 0.6501-22.381 0.92514-28.389 0.44022-8.4411-0.68118-16.015-2.0788-22.611-4.172-3.2882-1.0437-3.64-1.094-7.5-1.0734-3.7631 0.0201-4.2573 0.0919-6.9772 1.0136-3.3471 1.1343-6.5414 3.0096-9.3051 5.4628-2.3558 2.0912-5.3993 5.9903-5.1608 6.6117 0.32553 0.84834 7.5092 5.3136 12.148 7.551 11.079 5.3438 24.662 8.909 38.395 10.078 2.0625 0.17559 4.29 0.37125 4.95 0.43482 2.9966 0.2886 19.149-0.11088 23.1-0.57132zm-170.01-16.08c8.1402-0.8976 15.551-2.8636 19.413-5.1497 3.8427-2.2749 9.1562-8.1958 13.131-14.633 2.5005-4.0489 3.8186-8.5498 3.8186-13.039 0-3.0754-0.68182-5.4215-2.278-7.8384-2.019-3.057-6.722-7.6505-6.722-6.5655 0 0.0843 0.22564 1.468 0.50142 3.075 0.70574 4.1123 0.70744 13.851 0.003 16.572-1.0266 3.9645-4.3724 9.6-5.6996 9.6-0.25538 0-0.56554-0.30375-0.68924-0.675-0.29744-0.89268-0.20267-6.256 0.17361-9.825 1.7415-16.518-3.0383-30.649-12.02-35.538-2.2084-1.202-2.2874-1.0923-1.9626 2.7286 0.52374 6.163-0.62629 15.615-2.4811 20.391-2.49 6.41-9.03 12.22-9.03 8.03 0-0.61212 0.81453-3.519 1.8101-6.4598 2.8562-8.4372 3.1163-9.9442 3.1228-18.096 0.005-6.0465-0.075-7.2404-0.64528-9.6517-1.7861-7.5515-4.896-11.735-10.149-13.652-2.3463-0.85635-6.2227-0.92643-8.4443-0.1527-4.6377 1.6152-9.5229 6.3179-17.354 16.706-3.8858 5.1546-7.8734 8.7232-9.8429 8.8088-0.85505 0.0372-0.95573-0.0514-1.0393-0.91389-0.2097-2.1647 2.4034-7.2615 6.5085-12.695 5.7406-7.598 9.5116-11.696 13.429-14.593 2.5383-1.8772 2.5002-1.65 0.84845-5.0572-2.0422-4.2124-5.3583-7.2687-10.757-9.9143-7.0803-3.4695-12.715-3.3802-20.136 0.31872-5.777 2.8797-11.355 7.6297-19.048 16.22-5.817 6.4956-7.1012 8.2452-7.5172 10.241-0.53735 2.5786-0.13759 8.116 1.5183 21.031 0.79572 6.2063 3.9025 12.727 9.3159 19.553 2.4124 3.042 8.7259 9.267 12.281 12.109 3.2366 2.5872 9.4693 6.7756 13.355 8.975 12.753 7.2174 32.961 11.597 46.581 10.095zm165.51-15.59c29.137-2.4525 50.526-15.828 61.042-38.171 3.8717-8.2267 5.0301-13.315 7.5098-32.987 3.2157-25.51 5.1091-36.607 8.4344-49.433 2.6752-10.318 5.6428-18.267 10.274-27.52 3.658-7.3083 4.2425-9.148 4.2196-13.28-0.0153-2.7393-0.14397-3.5196-0.98793-5.985-2.337-6.8271-4.6415-9.0698-10.205-9.9306-4.516-0.69882-11.695 1.2598-15.088 4.1162-3.4014 2.8641-9.0013 5.8355-14.398 7.6399-1.9589 0.65496-6.28 1.7893-9.6024 2.5207-5.8694 1.2922-10.816 2.5502-14.499 3.6876-1.7372 0.53646-1.854 0.63858-3.3489 2.9285-9.2995 14.245-13.607 20.254-16.635 23.208-1.2015 1.1721-2.6992 2.2427-4.1185 2.9441-2.0223 0.99948-2.5078 1.1134-5.2064 1.2218-1.6369 0.0658-3.812-0.0422-4.8336-0.23997-3.0616-0.59253-14.533-5.2566-26.432-10.746l-6.874-3.1715-2.442 0.35307c-1.3431 0.19419-4.3847 0.8301-6.7591 1.4131-4.3326 1.0639-6.2664 1.6982-22.351 7.3324-13.352 4.6769-17.103 5.473-25.95 5.5072-5.9901 0.0231-10.004-0.33195-16.77-1.4835l-4.3198-0.73533-1.9802 0.64707c-9.0687 2.9632-15.237 9.6695-17.036 18.521-0.58122 2.8605-0.65157 9.773-0.12266 12.051 1.1558 4.9788 7.4327 14.774 14.995 23.4 7.3342 8.366 14.074 14.803 22.931 21.9 8.376 6.7117 14.2 12.766 22.509 23.4 10.081 12.901 13.451 16.353 19.843 20.327 9.8568 6.1274 21.165 9.2956 38.1 10.674 2.9482 0.24006 16.842 0.16356 20.1-0.11064zm-23.1-11.277c-4.4971-0.35958-10.182-1.161-14.7-2.0721-6.4161-1.294-7.9781-1.7597-8.7594-2.6114-0.34332-0.37425-2.1916-4.0926-4.1074-8.2631-3.929-8.5531-4.1249-9.3718-2.6062-10.89 0.95235-0.95235 2.048-1.1147 3.913-0.57984 0.56976 0.16341 1.1474 0.18564 1.2836 0.0494 0.22722-0.22722-15.962-40.656-16.493-41.186-0.12807-0.12807-2.1898-0.45-4.5816-0.71544-4.8047-0.53319-6.008-0.81816-6.6759-1.5811-0.24735-0.28254-3.5037-7.13-7.2363-15.217-7.3019-15.819-7.423-16.174-6.0625-17.755l0.72405-0.84174 17.351-0.0153c17.001-0.015 20.557-0.14715 32.501-1.2084 13.773-1.2238 29.008-3.6704 43.05-6.9137 2.475-0.57162 4.8013-0.96387 5.1695-0.87162 0.36822 0.0922 3.4732 2.0231 6.9 4.2908 6.3902 4.2288 11.263 7.2102 16.281 9.961 1.5675 0.85938 3.1875 1.8906 3.6 2.2915l0.75 0.72903 0.0824 16.685c0.0755 15.276 0.0394 16.751-0.4272 17.468-0.28029 0.43101-2.5786 3.4525-5.1074 6.7144-2.5288 3.262-4.5978 6.1306-4.5978 6.3747 0 0.61074 7.7325 9.1445 8.2859 9.1445 0.24513 0 1.8119-0.8775 3.4818-1.95 3.6579-2.3494 4.5563-2.486 6.1123-0.93 1.2031 1.2031 1.1684 0.53841 0.6 11.491-0.32133 6.1916-0.48603 7.7037-0.90948 8.35-0.2844 0.43404-2.0254 1.7699-3.8688 2.9685-9.5271 6.1947-19.631 10.823-29.576 13.549-4.3329 1.1875-5.6335 1.2664-6.7248 0.40803-0.99849-0.7854-1.083-1.1217-2.4638-9.8032-1.1231-7.0615-1.1413-7.2973-0.64296-8.3423l0.51282-1.0754-3.0637-3.2077c-1.685-1.7642-3.2391-3.3157-3.4535-3.4476-0.51756-0.31857-7.0108 0.68874-7.1599 1.1107-0.064 0.18108 0.2631 1.8142 0.72684 3.6292l0.84318 3.3 2.1391-0.0884c2.4617-0.10173 3.7189 0.37968 4.3569 1.6685 0.22323 0.45096 1.124 4.2004 2.0016 8.3321 1.4564 6.8567 1.5589 7.5873 1.1742 8.373-0.67011 1.3687-1.7191 1.9185-4.3215 2.265-2.4728 0.32931-15.635 0.62685-18.3 0.41373zm14.25-5.1711c1.7483-0.24966 1.7728-0.52554 0.50943-5.7428l-0.9807-4.05h-2.899c-1.5945 0-3.0283-0.135-3.1863-0.3-0.45648-0.4767-4.8983-17.616-4.6328-17.876 0.13164-0.12891 1.9268-0.38472 3.9893-0.5685 4.0521-0.36105 8.8049-1.0091 12.15-1.6566l2.1-0.4065 7.35 7.5231c4.0425 4.1377 7.35 7.7255 7.35 7.9729 0 0.30234-0.68829 0.63729-2.1 1.022-1.155 0.3147-2.27 0.73959-2.4777 0.94419-0.30342 0.29883-0.2406 1.2681 0.31938 4.928 0.38337 2.5058 0.79404 4.653 0.91257 4.7715 0.30153 0.3015 6.1126-1.4291 10.322-3.074 4.4387-1.7346 12.165-5.5391 16.274-8.0139l3.15-1.897 0.26124-5.4834c0.14835-3.1134 0.14835-5.5912 0-5.7329-0.14367-0.13719-1.6036 0.54849-3.2442 1.5238-1.6406 0.97527-3.1679 1.7732-3.3939 1.7732-0.22599 0-1.4608-1.1138-2.744-2.475-3.9394-4.1788-11.265-12.259-11.521-12.708-0.17049-0.29901 1.548-2.6915 5.82-8.1025l6.0619-7.6782-0.35412-13.992c-0.2592-10.24-0.45222-14.08-0.71997-14.321-0.20121-0.18135-3.4428-2.1811-7.2036-4.4438-3.7607-2.2628-8.5513-5.1864-10.646-6.4968-2.0943-1.3105-3.9916-2.3827-4.2162-2.3827-0.22461 0-3.3123 0.61176-6.8617 1.3595-22.594 4.7596-42.612 6.7858-67.364 6.8182-10.54 0.0138-12.225 0.0767-12.225 0.45633 0 0.4038 8.0981 19.192 8.6733 20.123 0.17805 0.28809 1.812 0.53415 5.6139 0.84543 3.1796 0.26031 5.4991 0.58332 5.6977 0.79341 0.53217 0.56304 20.864 53.943 20.705 54.359-0.11208 0.29205-0.82371 0.25152-3.2417-0.18456-1.704-0.30729-3.4018-0.63135-3.7731-0.72006-0.48549-0.11604-0.675-0.027-0.675 0.31761 0 0.80502 3.9119 9.5505 4.5004 10.061 1.0442 0.90603 9.8818 2.4613 16.8 2.9565 3.747 0.2682 13.35 0.12183 15.9-0.24234zm-14.35-44.17c-0.71418-1.9419-5.8183-22.466-5.678-22.832 0.1152-0.30015 1.2283-0.52893 3.868-0.795 7.1789-0.72357 16.098-2.2091 23.915-3.9833 2.3816-0.54051 4.1186-0.80001 4.2794-0.63927 0.33657 0.33657 3.458 23.686 3.2008 23.943-0.9456 0.94563-19.418 4.2996-26.555 4.8214-2.7259 0.19932-2.7702 0.19182-3.0302-0.5151zm16.043-5.8392c4.4477-0.80385 7.2357-1.4604 7.5542-1.7789 0.25056-0.25059-1.7178-13.723-2.0554-14.068-0.15429-0.1578-2.2202 0.12261-5.004 0.67923-5.0657 1.0128-12.237 2.123-13.78 2.1333-1.7267 0.0114-1.726 0.25572 0.0219 7.4941 0.88941 3.683 1.7672 6.7892 1.9507 6.9026 0.43638 0.2697 5.9691-0.39657 11.312-1.3622zm-153.16 5.8106c1.1917-2.2267 1.5272-7.2828 0.69981-10.546-1.9636-7.7431-11.38-18.103-20.383-22.427-6.7402-3.2367-14.158-3.6096-19.578-0.98427-1.9076 0.92403-4.6486 3.0389-4.5034 3.4746 0.0577 0.1731 0.90953 0.61731 1.893 0.98709 8.148 3.0639 14.597 8.7901 17.42 15.468 0.45054 1.0657 0.93739 2.0718 1.0819 2.2359 0.15211 0.17271 1.4887 0.2568 3.1744 0.19968 7.7113-0.26127 14.504 3.5132 18.224 10.127 0.65313 1.1611 1.284 2.1141 1.402 2.118 0.11794 0.004 0.37367-0.29058 0.56829-0.65424zm352.4-10.749c3.7707-0.61191 6.9077-2.2784 8.3682-4.4456 0.9588-1.4228 1.2191-3.1332 1.9014-12.494 1.1676-16.018 1.7838-19.304 4.7272-25.2 2.3361-4.6799 4.4421-7.35 5.7972-7.35 1.8537 0 1.4792 4.6731-0.93915 11.719-1.0866 3.1658-1.4375 4.7806-1.039 4.7806 0.0835 0 2.0095-0.8679 4.2802-1.9287 3.9404-1.8409 7.4825-3.1759 9.5933-3.6158 0.74004-0.15426 1.0188-0.0898 1.1557 0.26691 0.56823 1.4808-4.8375 7.3-8.8042 9.4776-1.3525 0.7425-2.4631 1.4838-2.4679 1.6473-0.005 0.16356 0.48174 1.2901 1.0813 2.5035 1.841 3.7259 1.6624 5.7719-0.46317 5.3051-0.78174-0.17172-2.8084-1.389-5.06-3.0392-0.37566-0.27534-0.75582-0.42783-0.84477-0.33891-0.0889 0.0889-0.35289 2.8416-0.58653 6.1169-0.54288 7.6095-0.9285 10.826-1.488 12.412-0.72924 2.0669-0.70719 2.0936 1.7274 2.0908 5.2238-0.006 11.168-1.0921 13.27-2.4247 4.5359-2.8766 13.043-18.935 18.6-35.109 3.7285-10.853 4.0656-17.699 1.2975-26.353-1.1883-3.7154-4.0257-10.226-5.6431-12.948-0.70113-1.1802-7.1723-9.9908-14.38-19.579-16.669-22.174-18.109-24.033-18.604-24.033-0.23829 0-0.70305 0.87474-1.1158 2.1-1.9993 5.9355-5.6381 11.655-10.252 16.114-6.795 6.5672-15.168 10.203-25.378 11.021-4.9182 0.39363-11.785-0.33546-15.498-1.6455-2.2195-0.78306-2.2635-0.74733-2.6903 2.1855-0.83436 5.7337-0.28611 15.36 1.2046 21.15 1.0073 3.9129 2.3645 6.9756 2.8679 6.4722 0.11088-0.11085 0.44634-1.4654 0.74553-3.0102 0.66498-3.4336 1.7631-6.7696 3.3302-10.117 1.6161-3.4523 2.5071-4.5801 3.5252-4.4623 0.67743 0.0784 0.83847 0.29157 1.0764 1.4248 0.37128 1.7684-0.16848 6.9859-1.3208 12.767-1.3157 6.6016-1.1767 9.4258 0.6555 13.312 0.71997 1.527 1.8157 2.8482 5.4435 6.563 2.4981 2.5581 6.5808 6.4522 9.0725 8.6536l4.5304 4.0026-0.0213 5.4844c-0.0153 3.9827 0.12948 6.4067 0.52923 8.8526 0.30273 1.8525 0.47883 3.5548 0.39129 3.7829-0.0916 0.23859-0.83742 0.50475-1.7561 0.62661-2.0982 0.27834-3.4174 0.93249-4.862 2.4109-2.1197 2.1693-3.7742 6.7783-3.7869 10.55-0.006 1.7736 0.10239 1.8514 3.7337 2.6784 7.0835 1.6132 14.214 2.2525 18.097 1.6224zm-325.43-6.52c0-0.12819-0.50625-0.9078-1.125-1.7325-0.61875-0.82467-1.6095-2.1748-2.2016-3.0003-1.0638-1.483-1.1043-1.5056-3.3976-1.8909-3.2793-0.55101-9.8123-2.23-13.57-3.4875-1.756-0.58761-3.2596-1.0015-3.3414-0.91968-0.50046 0.50046 5.1867 5.8044 8.6361 8.0541 1.3946 0.90954 2.277 1.195 5.7 1.8442 7.0064 1.3288 9.3 1.6081 9.3 1.1326zm299.37-7.6419c1.2728-2.8144 3.3189-5.3748 5.5905-6.9958l2.0132-1.4366-0.18624-1.9713c-0.10242-1.0842-0.1872-3.4745-0.18837-5.3117l-0.003-3.3404-3.575-3.1846c-1.9654-1.7515-3.702-3.1846-3.8582-3.1846-0.15621 0-0.6315 0.77625-1.0562 1.725-1.6459 3.6764-3.1029 10.093-3.8128 16.791-0.38616 3.643-0.12507 4.9756 1.2907 6.5882 0.7842 0.89316 2.4681 2.1901 2.8499 2.195 0.0481 0 0.46914-0.84264 0.93549-1.8739zm-308.67-6.61c0-0.5604-1.8048-4.8144-2.206-5.1996-0.18919-0.18165-1.6265-0.76404-3.194-1.2942-3.7318-1.2621-11.113-4.8974-14.7-7.2401-1.5675-1.0237-3.0188-1.9261-3.225-2.0054-0.62183-0.23916-0.43956 0.93135 0.68834 4.4203 1.0127 3.1325 1.1284 3.334 2.4304 4.2298 3.2054 2.2054 8.9604 4.6237 15.256 6.4108 3.9378 1.1178 4.95 1.2565 4.95 0.67839zm299.07-11.889c1.0447-4.3101 2.2378-7.6232 3.6596-10.162 0.97242-1.7365 0.92613-2.0618-0.47937-3.3677-2.782-2.5849-5.215-6.7024-6.1725-10.446-0.32103-1.2552-0.69864-2.3972-0.83916-2.5377-0.47457-0.47457-3.0671 2.9138-4.54 5.9337-3.0776 6.31-3.0362 10.816 0.15168 16.516 1.7614 3.1498 6.6095 8.8522 7.0614 8.3059 0.10107-0.12219 0.62226-2.0312 1.1582-4.2423zm-244.83-31.81c3.5386-0.67701 6.9901-1.7413 16.108-4.9673 11.173-3.9529 15.937-5.5555 18.583-6.2515 1.4758-0.38814 2.7236-0.82944 2.7728-0.98067 0.0492-0.1512-0.8883-0.80055-2.0834-1.443-10.148-5.4554-20.243-11.427-28.514-16.869-3.1664-2.083-5.9525-3.7133-6.346-3.7133-1.7882 0-18.885 6.3782-28.363 10.581-9.3898 4.1638-15.3 5.2732-15.3 2.8718 0-0.57768 1.5801-2.3033 3.4323-3.7485l1.1823-0.9225-1.8201-2.8158c-7.1551-11.069-10.827-24.473-11.068-40.398-0.0555-3.6755-0.17512-6.8028-0.26585-6.9496-0.0907-0.14679-1.9157-1.5082-4.0556-3.0254-4.7552-3.3714-7.4712-5.8197-8.4016-7.5734-0.88745-1.6729-0.67953-2.319 0.74625-2.319 5.0673 0 16.736 7.5087 30.303 19.5 25.359 22.413 51.31 39.905 80.997 54.594 12.563 6.2164 29.165 13.406 33.588 14.545 3.9171 1.009 6.349 0.48627 8.9652-1.9271 4.4879-4.14 15.871-21.304 25.076-37.812 3.4237-6.1399 10.598-20.491 13.348-26.7 8.9523-20.213 15.458-41.003 18.313-58.523 0.66438-4.077 1.6598-11.754 1.6598-12.801 0-0.90141-0.63882-0.18789-2.2519 2.5152-4.2619 7.1418-11.439 15.219-17.71 19.931-9.9875 7.504-21.36 12.244-34.188 14.25-1.815 0.28386-3.4502 0.63216-3.6338 0.77406-0.18363 0.14187-0.42402 1.303-0.53418 2.5804-0.29385 3.407-1.0751 7.4533-1.5597 8.0778-0.40413 0.52077-0.4479 0.51489-0.99825-0.13368-1.1247-1.3255-2.7151-10.047-3.3076-18.138-0.17253-2.3558-0.51603-9.0758-0.76338-14.933-2.3342-55.277-1.5143-99.892 2.4174-131.55 1.4806-11.922 3.0108-18.455 4.9655-21.2 1.2365-1.7364 2.0285-0.79699 2.2787 2.7029 0.0903 1.2637 0.26457 2.4869 0.38718 2.7182 0.13635 0.2572 1.8425 0.74648 4.3929 1.2598 9.6677 1.9458 19.821 5.8221 27.675 10.566 1.551 0.93683 2.9383 1.7033 3.0827 1.7033 0.7224 0-3.606-6.6055-7.217-11.014-15.711-19.179-41.012-31.503-70.841-34.506-2.7251-0.2743-5.2096-0.40093-5.521-0.2814-0.54021 0.2073-0.55698 0.52505-0.36363 6.8841 1.0068 33.111 7.0558 88.431 15.228 139.27 1.7449 10.854 1.9193 17.85 0.44505 17.85-1.5628 0-4.672-6.7566-6.4884-14.1-1.1857-4.7935-3.654-13.645-5.8975-21.15-14.898-49.833-33.212-91.911-51.905-119.25-1.1338-1.6582-1.967-2.5819-2.3827-2.6412-1.6584-0.23655-15.568 5.9864-22.161 9.9145-17.56 10.462-31.135 25.627-41.537 46.402-7.3861 14.75-11.672 30.746-12.909 48.175-1.0542 14.856 0.58279 31.662 4.6445 47.682 0.75052 2.9602 2.7005 9.3727 4.3333 14.25 3.7878 11.314 5.202 17.677 4.1274 18.569-0.3783 0.31395-0.64225 0.21276-1.57-0.60183-0.6134-0.53859-1.645-1.6962-2.2924-2.5726-0.64739-0.87636-1.2941-1.521-1.437-1.4327-0.143 0.0884-0.60713 1.6411-1.0314 3.4506-6.8234 29.099-3.8252 59.146 8.31 83.284 4.5242 8.9987 11.554 16.288 20.312 21.063 6.74 3.6745 16.994 6.4709 28.2 7.6904 7.5703 0.82383 13.02 0.70581 18.842-0.40803zm49.71-82.6c-0.6006-0.70125-1.907-2.9288-2.9031-4.95-0.99612-2.0212-1.8851-3.675-1.9756-3.675-0.0904 0-2.3383 0.4668-4.9953 1.0373-9.4121 2.0211-13.226 2.3956-24.481 2.4046-10.472 0.008-12.007-0.10947-19.65-1.509-20.613-3.7746-39.614-14.662-52.387-30.018-9.2262-11.092-15.872-24.595-19.322-39.26-2.6188-11.13-2.9386-23.148-0.89541-33.652 3.5636-18.319 14.318-35.918 30.079-49.222 1.8562-1.5669 3.375-2.9381 3.375-3.0472 0-0.10908-1.0871-1.2752-2.4158-2.5913-3.9022-3.8653-4.4499-5.243-2.0841-5.243 2.401 0 7.3425 2.1191 10.65 4.567 4.6541 3.4446 12.601 11.533 19.442 19.789 18.423 22.233 36.596 54.135 52.819 92.719 5.6602 13.462 13.327 33.763 15.155 40.129 1.7492 6.0922 2.5719 11.707 1.9521 13.322-0.3174 0.82716-1.2355 0.51621-2.3631-0.80046zm-106.95-69.67c0.85941-2.145 2.9562-6.735 4.6595-10.2 9.4693-19.263 21.509-34.728 34.793-44.692 1.815-1.3613 3.6038-2.6613 3.975-2.8888 0.37125-0.22748 0.675-0.63372 0.675-0.90277 0-0.43182-3.8476-5.7927-6.866-9.5665-2.403-3.0044-6.9075-8.2942-7.6351-8.9663l-0.77547-0.71629-2.0367 1.8091c-2.7781 2.4677-7.9031 7.7832-10.484 10.873-11.761 14.084-18.763 29.506-20.498 45.15-0.38366 3.4581-0.3851 10.922-0.003 14.4 0.36065 3.2812 1.4612 9.086 1.8718 9.873 0.37562 0.71988 0.33287 0.79665 2.324-4.173zm28.05 122.25c3.7787-1.7209 12.802-5.313 17.7-7.0466 2.64-0.93432 4.9145-1.81 5.0544-1.946 0.13992-0.13596-2.1316-2.0276-5.0478-4.2035-7.1843-5.3606-14.735-11.419-21.06-16.898-8.7208-7.5541-10.695-9.2072-10.993-9.2072-0.42901 0-0.0248 11.322 0.53017 14.85 1.0549 6.7065 3.1524 13.622 5.6417 18.6 1.3839 2.7675 3.6691 6.4366 4.3323 6.9558 0.50213 0.39312 0.64114 0.35316 3.8424-1.1048zm156.47-3.1555c7.687-1.7288 11.374-2.8534 15.141-4.6188 5.4045-2.5326 10.455-6.8336 13.595-11.577 2.1452-3.2408 5.1675-9.505 6.4454-13.359 2.1645-6.5283 3.0442-14.053 2.5564-21.866-0.53751-8.6071-2.69-20.027-5.1658-27.407-1.4437-4.3037-4.9621-13.184-5.3953-13.617-0.29646-0.29649-0.80079 0.22821-0.80079 0.83313 0 0.32919-0.62364 3.7117-1.3859 7.5167l-1.3859 6.9182 0.60996 1.0906c2.1928 3.9206 3.6552 12.45 4.1409 24.152l0.21009 5.0614 1.0054 0.59319c0.55299 0.32625 1.0054 0.77256 1.0054 0.9918 0 1.1682-3.6069 2.5695-11.866 4.6098-4.9308 1.2182-7.2224 1.9652-7.8256 2.5508-0.18774 0.18231-1.1812 2.2848-2.2077 4.6722-4.0784 9.4852-10.472 22.354-15.88 31.959-1.7745 3.1523-1.8701 3.6056-0.69627 3.3008 0.45375-0.11784 4.0084-0.93018 7.8993-1.8052zm-214.77-44.46l1.6721-2.625 0.19934-5.1c0.50918-13.028 2.5816-25.266 6.1407-36.261l0.8614-2.6613-1.6368-4.8387c-5.8858-17.4-8.815-34.787-8.8258-52.389-0.005-8.266 0.32091-13.01 1.4302-20.814 0.46527-3.2732 0.66367-5.5764 0.509-5.909-0.59-1.3-17.71-20.62-28.68-32.39-12.76-13.68-36.05-36.53-49.41-48.47-36.87-32.94-70.424-54.57-96.572-62.26-4.1334-1.2154-9.9645-1.548-12.798-0.73003-2.6782 0.77302-4.4865 1.881-6.3883 3.914-5.2157 5.5756-6.8535 13.45-6.5508 31.497 0.24349 14.515 1.9152 26.114 5.9218 41.088 18.814 70.315 77.853 135.84 169.96 188.64 10.158 5.8228 21.434 11.92 22.046 11.921 0.25811 0.00012 1.2109-1.1698 2.1377-2.6248zm233.1-2.1751c1.7035-0.18483 3.5698-0.42915 4.1473-0.54297l1.05-0.20691-0.0851-2.1c-0.13749-3.3934-0.65559-7.2589-1.4676-10.95-0.80541-3.6611-1.2001-4.7244-1.5986-4.3072-0.13515 0.14148-0.8172 2.0797-1.5157 4.3072-0.69846 2.2275-2.0613 6.2552-3.0285 8.9504-1.6862 4.6988-1.8679 5.6725-0.99645 5.338 0.21852-0.0838 1.7911-0.30369 3.4946-0.48855zm69.74-22.12c-0.49407-7.1523-2.27-15.948-4.3761-21.675-7.9305-21.563-25.961-31.22-51.46-27.562-3.6136 0.51837-3.8023 0.62505-3.6923 2.088l0.0923 1.2274 6 0.0657c4.907 0.0537 6.5739 0.18849 9.15 0.73968 7.4177 1.5871 15.913 5.2358 21.59 9.2722 3.8428 2.7326 8.8853 7.6518 11.742 11.455 2.625 3.4948 6.0001 9.808 7.4426 13.922 1.0416 2.9706 2.2133 7.4457 2.721 10.393 0.39972 2.3201 0.58542 3 0.81933 3 0.0957 0 0.0831-1.3162-0.0279-2.925zm6.2695-14.025c-0.57663-13.39-3.4089-23.079-8.9179-30.509-6.015-8.1124-14.46-12.988-26.188-15.12-3.7554-0.68262-14.876-0.7815-18.6-0.16539-7.3642 1.2185-12.714 3.175-11.649 4.2598 0.26751 0.27231 0.80175 0.27819 2.2413 0.0246 4.4083-0.77652 10.909-1.0635 15.632-0.69009 13.069 1.0332 22.886 5.2714 30.994 13.381 7.7398 7.7411 12.852 18.487 15.281 32.12 0.63483 3.5638 0.77208 3.8588 1.1166 2.4 0.16029-0.67857 0.19923-3.1554 0.0896-5.7zm-58.806-55.027c4.7024-3.0562 10.41-6.2966 16.72-9.4934 3.4412-1.7432 5.8121-3.1782 7.5367-4.5616 10.789-8.6549 23.622-10.265 35.293-4.4282 4.6986 2.3499 7.117 4.2389 12.993 10.149 5.2251 5.2553 5.6736 5.6345 6.0551 5.1182 1.7761-2.4034 12.59-21.008 17.326-29.808 30.722-57.085 48.028-114.79 51.22-170.81 0.39306-6.8964 0.39147-26.201-0.003-32.592-0.84-13.732-2.76-26.964-4.86-33.61-2.55-8.089-6.72-13.88-11.81-16.394-2.34-1.156-2.34-1.156-6.1-1.156-4.3191 0-6.0689 0.45574-10.552 2.7485-5.6764 2.9027-11.085 7.3064-20.379 16.592-31.645 31.617-63.839 81.49-94.997 147.16-7.3324 15.454-19.888 44.33-19.888 45.74 0 0.18203 0.89139 1.3725 1.9808 2.6456 6.84 7.9925 11.859 18.572 14.193 29.915 2.5599 12.442 3.0218 32.094 1.0349 44.025-0.13557 0.8142-0.0807 1.125 0.19866 1.125 0.21231 0 2.0316-1.0695 4.0428-2.3766zm-12.75-21.46c0-1.1643-2.2234-8.8975-3.4659-12.055-6.957-17.678-20.374-31.512-40.184-41.432-4.4994-2.2532-12.332-5.4756-13.308-5.4756-0.75423 0-0.78291 0.15016-1.5196 7.95-1.1207 11.865-1.3196 15.485-0.87294 15.89 0.22053 0.20007 1.481 0.66766 2.801 1.0391 16.584 4.6664 36.507 16.522 52.65 31.332 1.8975 1.7407 3.5512 3.1703 3.675 3.1769 0.12375 0.007 0.225-0.18472 0.225-0.42512zm-102.43-7.15c-0.0888-0.53625-0.63198-4.755-1.207-9.375-4.8101-38.647-7.2107-66.774-7.7452-90.75l-0.0635-2.85-5.25 0.0421c-7.6258 0.0612-14.134 0.77943-22.95 2.5328-5.4429 1.0825-9.15 2.0518-9.15 2.3926 0 0.13846 1.2642 2.1824 2.8093 4.5421 14.091 21.52 27.545 50.209 39.928 85.14 1.1991 3.3825 2.412 6.8588 2.6954 7.725 0.56877 1.7384 1.1872 2.1362 0.93282 0.6z"/>
 </g>
</svg>
