<?xml version="1.0" encoding="UTF-8" standalone="no"?>
<!-- Created with Inkscape (http://www.inkscape.org/) -->
<svg id="svg3517" xmlns:rdf="http://www.w3.org/1999/02/22-rdf-syntax-ns#" xmlns="http://www.w3.org/2000/svg" height="500" viewBox="0 0 500 500" width="500" version="1.1" xmlns:cc="http://creativecommons.org/ns#" xmlns:dc="http://purl.org/dc/elements/1.1/">
 <metadata id="metadata3523">
  <rdf:RDF>
   <cc:Work rdf:about="">
    <dc:format>image/svg+xml</dc:format>
    <dc:type rdf:resource="http://purl.org/dc/dcmitype/StillImage"/>
    <dc:title/>
   </cc:Work>
  </rdf:RDF>
 </metadata>
 <path id="path" d="m243.75 414.38c0-5.1562-0.34481-9.375-0.76625-9.375s-5.6246 2.728-11.562 6.0621c-5.9379 3.3342-12.088 6.7431-13.668 7.5755l-2.8713 1.5133 0.37132-8.3762 0.37134-8.3762 13.75-7.8027 13.75-7.8027 0.3644-10.23 0.36439-10.23-5.3644 3.1417c-2.9504 1.7279-14.083 8.1774-24.739 14.332l-19.375 11.191-0.38003-6.9217c-0.20901-3.8069-0.11037-7.6244 0.21928-8.4834 0.32962-0.85897 8.6569-6.1654 18.505-11.792 9.8482-5.6266 19.031-11.066 20.406-12.088 2.8885-2.1463 4.174-1.0468-12.715-10.876l-11.465-6.6724 7.0595-4.0548c7.934-4.557 7.0326-4.7108 21.245 3.6251l6.6237 3.885-0.37372-7.7505-0.37371-7.7505-27.811-15.972-27.811-15.972-5.6144 3.1379c-3.0879 1.7258-5.8598 3.535-6.1597 4.0203-0.29992 0.4853 3.9002 3.3933 9.3336 6.4622l9.8789 5.5799 0.0296 7.8125c0.0323 8.5029-0.71369 9.187-6.0274 5.5274-4.0491-2.7887-19.701-11.465-20.682-11.465-0.38938 0-0.86048 11.049-1.0469 24.552-0.3161 22.899-0.50412 24.646-2.7916 25.938-1.349 0.76178-4.5833 2.6577-7.1875 4.2132l-4.7348 2.8282v-28.766c0-15.821-0.3534-28.766-0.78534-28.766-1.3484 0-14.787 7.8896-15.829 9.2925-0.54397 0.7329-0.62409 8.4643-0.17804 17.181l0.811 15.848-6.697 3.5195c-3.6833 1.9358-7.1188 3.7103-7.6345 3.9434-0.51562 0.23311-0.9375-6.9749-0.9375-16.018v-16.442l-9.1856 5.0706-9.1856 5.0706-3.4384-6.3174c-1.8911-3.4746-3.242-6.478-3.0019-6.6743 0.24004-0.1963 4.2694-2.4769 8.954-5.068l8.5176-4.7111-14.417-8.2851c-14.273-8.21-14.379-8.3-11.63-10.41 1.5258-1.1708 4.7588-3.0282 7.1845-4.1273l4.4103-1.9985 14.456 8.2236 14.456 8.2237 8.3342-4.8702c6.0043-3.5087 7.8938-5.1965 6.759-6.0374-0.86636-0.64193-11.841-7.0139-24.388-14.16-12.54-7.15-22.81-13.4-22.81-13.89 0-0.49524 2.8779-2.562 6.3954-4.5928l6.3954-3.6924 21.417 12.156 21.417 12.156 0.35032-15.505 0.35033-15.505 7.4622 4.1024 7.4622 4.1024v22.932l6.875-3.7237 6.875-3.7237v-63.302l-6.0469-3.8803c-3.3258-2.1342-6.3984-3.8803-6.8281-3.8803-0.42963 0-0.94288 5.1807-1.1406 11.513l-0.35941 11.513-7.1875 4.0375-7.1875 4.0375v-15.55c0-8.5525-0.28736-15.55-0.63858-15.55s-10.043 5.4133-21.537 12.03l-20.899 12.03-6.2751-3.4539c-8.6229-4.7461-8.8432-5.0716-4.8183-7.1206 4.1649-2.1203 36.671-20.69 42.689-24.387l4.1462-2.547-8.5008-4.8834-8.5009-4.8834-14.584 8.4663-14.584 8.4664-6.9707-4.1976-6.9707-4.1976 7.1598-4.352c3.9379-2.3936 10.112-5.9815 13.721-7.9731 3.6087-1.9916 6.5618-4.0335 6.5625-4.5376 0.0007-0.50405-2.6706-2.2873-5.9362-3.9628-10.972-5.6296-10.936-5.566-7.1488-12.341 1.815-3.2474 3.6738-5.8832 4.1307-5.8571 0.45685 0.026 4.4869 2.227 8.9556 4.8912l8.125 4.8439 0.34743-16.713 0.34742-16.713 7.1526 4.2273 7.1526 4.2273v33.214l7.5 4.6604c4.125 2.5632 7.9219 4.6949 8.4375 4.7371 0.51562 0.0421 0.9375-12.899 0.9375-28.758v-28.835l7.5 4.1232 7.5 4.1232v49.488l4.0625-2.0734c2.2344-1.1403 8.131-4.5298 13.104-7.5321 4.96-3.02 9.32-5.48 9.67-5.48 0.36 0 0.65 3.61 0.65 8.02v8.0156l-10.137 5.8472c-5.5755 3.2159-9.6536 6.2664-9.0625 6.7787 0.59111 0.51235 3.6355 2.3889 6.7653 4.1702l5.6905 3.2387 4.2833-2.712c2.3558-1.4916 14.701-8.6593 27.434-15.928l23.151-13.216 0.37215-7.7298c0.20467-4.2514 0.11346-7.7298-0.2027-7.7298s-4.4774 2.25-9.2472 5-9.6021 5-10.738 5c-1.1364 0-4.6517-1.6093-7.8119-3.5763l-5.7458-3.5762 3.562-2.5007c1.9591-1.3754 7.9213-4.8794 13.249-7.7867 5.3281-2.9073 9.6875-5.4419 9.6875-5.6323 0-0.19047-9.5625-5.8228-21.25-12.516l-21.25-12.17v-7.9957c0-4.3976 0.20443-7.9957 0.45429-7.9957 0.67537 0 42.074 23.628 45.046 25.71 1.4056 0.98449 2.9929 1.79 3.5274 1.79 0.53452 0 0.9681-4.3594 0.9635-9.6875l-0.009-9.6875-8.9451-5c-4.9198-2.75-11.385-6.3765-14.367-8.0588l-5.41-3.053v-7.8787c0-4.3333 0.42187-7.8578 0.9375-7.8324 0.51562 0.02546 6.8438 3.3808 14.062 7.4563l13.125 7.41 0.36305-9.9563 0.36305-9.9563h14.899v20.216l8.4375-4.7136c4.6406-2.5925 10.969-6.3191 14.062-8.2814l5.625-3.5678 0.37419 8.3744c0.22337 4.9992-0.16069 8.6714-0.95293 9.1113-0.73 0.405-7.22 4.112-14.42 8.232l-13.087 7.5-0.0224 9.7315c-0.0224 9.6951-0.0125 9.726 2.7901 8.2672 1.5469-0.80533 11.963-6.7528 23.147-13.217 11.184-6.4638 21.168-12.072 22.188-12.463 1.518-0.58253 1.853 0.73011 1.853 7.2606v7.9717l-21.422 12.366c-24.35 14.06-23.65 12.06-7.33 20.97 13.745 7.5104 13.507 7.1086 6.6186 11.165-7.3157 4.3075-9.129 4.3838-15.081 0.63463-2.5645-1.6154-6.4908-3.8798-8.7252-5.0321l-4.0625-2.095v8.1571c0 4.4864 0.45132 8.1571 1.0029 8.1571 0.91157 0 28.719 15.689 47.044 26.542l7.4222 4.3959 6.3278-3.8138c3.4803-2.0976 6.4665-3.9005 6.636-4.0064 0.16954-0.10588-4.1808-2.6789-9.6674-5.7177l-9.9757-5.5251-0.0201-8.4902-0.0201-8.4902 5.9375 3.3903c3.2656 1.8647 9.202 5.2634 13.192 7.5527s7.5056 4.1624 7.8125 4.1624c0.31 0 0.56-11.13 0.56-24.74v-24.737l6.875-3.9488 6.875-3.9488v28.685c0 15.777 0.30616 28.685 0.68038 28.685 0.37419 0 4.2965-2.0798 8.7163-4.6219l8.036-4.6219 0.34618-16.855 0.34616-16.854 6.875-4.0367 6.875-4.0367 0.34879 16.138c0.19182 8.876 0.64607 16.138 1.0094 16.138 0.97428 0 12.196-6.2928 13.579-7.6152 2.2665-2.166 3.8303-1.1006 7.2056 4.9091l3.393 6.0414-8.7025 4.8948c-8.7078 4.8978-10.073 6.2336-7.146 6.9907 0.85937 0.22227 7.3635 3.7179 14.454 7.7681l12.891 7.3639-7.4506 4.1988-7.4506 4.1988-7.9406-4.7875c-4.3673-2.6332-10.882-6.425-14.476-8.4263l-6.5356-3.6387-5.5522 3.033c-13.005 7.1042-14.111 5.4039 13.945 21.427 20.52 11.718 24.614 14.505 22.951 15.622-1.1127 0.74796-4.3216 2.629-7.1308 4.1801l-5.1076 2.8202-20.005-11.327c-11.003-6.2301-20.939-11.686-22.08-12.124-1.8631-0.71496-2.0752 0.74995-2.0752 14.337 0 8.3236-0.42188 15.09-0.9375 15.035-0.51563-0.054-3.4688-1.6363-6.5625-3.5162l-5.625-3.418-0.35941-11.484c-0.19768-6.3161-0.79066-11.484-1.3178-11.484-0.5271 0-3.5997 1.6751-6.8281 3.7225l-5.8697 3.7225v63.754l6.5625 3.7514 6.5625 3.7514 0.35489-11.612 0.35487-11.612 6.8326-3.9244 6.8326-3.9244v15.56c0 8.5582 0.20936 15.56 0.46524 15.56 0.25587 0 7.9902-4.2904 17.188-9.5341 9.1972-5.2438 18.87-10.712 21.494-12.152l4.772-2.6179 6.7905 3.5553c3.7348 1.9554 6.7905 3.9195 6.7905 4.3646 0 0.44515-5.7656 4.0606-12.812 8.0344-20.853 11.759-33.621 19.283-34.911 20.573-0.77912 0.77912 1.7283 2.8522 7.0483 5.8273l8.2576 4.6179 9.0212-5.2956c4.9617-2.9126 11.552-6.6576 14.646-8.3224l5.625-3.0268 7.2774 4.0057 7.2774 4.0057-14.128 8.0618c-7.7702 4.434-14.298 8.2322-14.506 8.4404-0.20825 0.20824 3.5372 2.705 8.3232 5.5483l8.7018 5.1697-3.1358 5.6105c-1.7247 3.0858-3.5125 5.8389-3.973 6.118-0.46047 0.27914-4.4935-1.7087-8.9622-4.4174l-8.125-4.9249-0.34879 16.304c-0.19182 8.9673-0.62222 16.304-0.95642 16.304-0.33422 0-3.6929-1.7412-7.4637-3.8693l-6.8561-3.8693v-17.381c0-10.577-0.48196-17.381-1.2312-17.381-0.67716 0-3.9738-1.6875-7.3257-3.75-3.352-2.0625-6.7354-3.75-7.5188-3.75-1.0237 0-1.4242 7.948-1.4242 28.259 0 31.365 0.66096 29.557-8.6549 23.676l-5.12-3.19v-24.359c0-13.398-0.38605-24.359-0.8579-24.359s-6.3219 3.0938-13 6.875c-6.6782 3.7812-12.48 6.875-12.892 6.875-0.41241 0-0.74985-3.6232-0.74985-8.0515v-8.0515l10.178-5.5717 10.178-5.5717-6.5288-3.7288-6.5289-3.7288-12.086 6.9216c-6.65 3.8-19.12 10.92-27.71 15.82l-15.625 8.8985-0.37146 7.7557-0.37148 7.7557 9.7401-5.7585 9.7401-5.7585 6.6791 3.5972c3.6735 1.9785 6.9039 3.9542 7.1786 4.3906 0.27471 0.43637-5.3926 4.0926-12.594 8.125s-13.101 7.6128-13.109 7.9566c-0.009 0.34375 5.187 3.598 11.546 7.2316 6.3592 3.6336 15.781 9.0497 20.937 12.036l9.375 5.4291 0.37134 8.3523c0.37056 8.335 0.36547 8.3492-2.462 6.8359-7.6037-4.0694-44.361-25.325-45.776-26.471-1.3022-1.0546-1.5451 0.72384-1.25 9.1519l0.36625 10.461 7.5 4.266c4.125 2.3463 10.312 5.8411 13.75 7.7663l6.25 3.5004 0.36961 8.2205c0.2 4.51 0.13 8.21-0.16 8.21-0.28844 0-6.4811-3.375-13.762-7.5-7.2804-4.125-13.539-7.5-13.908-7.5-0.36883 0-0.67061 4.2188-0.67061 9.375v9.375h-15v-9.375zm29.145-111.68c11.814-6.7694 24.292-13.98 27.73-16.024l6.25-3.7163 0.29559-32.413 0.29559-32.413-14.046-7.9723c-7.7251-4.3848-20.379-11.592-28.12-16.016l-14.075-8.0436-14.675 8.3843c-8.0714 4.6114-20.718 11.819-28.104 16.016l-13.429 7.6316 0.002 32.5 0.002 32.5 5.927 3.2238c3.2598 1.7731 15.771 8.9408 27.802 15.928 12.031 6.9875 22.053 12.709 22.27 12.714 0.21745 0.005 10.061-5.5294 21.875-12.299zm-44.77-13.89-21.25-12.204v-51.898l21.25-12.332c11.688-6.7826 21.958-12.34 22.823-12.35 0.8649-0.01 11.271 5.5617 23.125 12.381l21.552 12.398 0.33746 25.597 0.33747 25.597-22.127 12.63c-12.17 6.9464-22.728 12.575-23.462 12.508-0.73424-0.067-10.897-5.6138-22.585-12.326zm38.125-12.318 14.375-8.408 0.34528-17.534 0.34526-17.534-15-8.4931-15-8.4931-15.032 8.3351-15.032 8.3351 0.004 17.716 0.004 17.716 14.684 8.3679c8.0762 4.6023 14.965 8.375 15.309 8.3836 0.34375 0.009 7.0938-3.7679 15-8.3923z"/>
</svg>
