<?xml version="1.0" encoding="UTF-8" standalone="no"?>
<svg xmlns:rdf="http://www.w3.org/1999/02/22-rdf-syntax-ns#" xmlns="http://www.w3.org/2000/svg" height="500" viewBox="0 0 499.99999 499.99998" width="500" version="1.1">
 <g id="path" transform="translate(0,-552.36)">
  <path id="path2" d="m231.46 987.64c-45.014-9.376-76.586-40.178-85.859-83.767-6.2878-29.556-0.29708-50.638 29.768-104.76 46.888-84.405 61.158-118.21 71.533-169.45 3.254-16.072 3.4154-16.487 4.1956-10.795 2.8517 20.805 14.967 61.966 25.757 87.51 6.5247 15.446 27.856 57.055 42.209 82.334 29.915 52.686 38.805 76.169 37.449 98.916-0.91497 15.346-3.7718 26.644-10.155 40.162-11.081 23.466-27.634 40.058-51.01 51.133-19.017 9.0097-45.288 12.596-63.889 8.7213zm82.762-47.991c13.676-11.574 22.864-28.878 24.636-46.4 1.6344-16.159-4.4834-38.87-16.305-60.53-7.9181-14.507-9.9549-16.687-6.2903-6.7324 7.2583 19.717 10.13 48.112 6.8861 68.097-2.0344 12.534-7.1971 28.739-12.827 40.263-2.896 5.9274-5.4818 11.277-5.7462 11.889-0.73701 1.7042 2.3039-0.37194 9.6469-6.5863z"/>
 </g>
</svg>
